name rise36.2859peak64.2979fall75.1499.mot
datacolumns 19
datarows 15
range 10.27662400000000 10.29997300000000
endheader
time	ground_force1_vx	ground_force1_vy	ground_force1_vz	ground_force1_px	ground_force1_py	ground_force1_pz	ground_force2_vx	ground_force2_vy	ground_force2_vz	ground_force2_px	ground_force2_py	ground_force2_pz	ground_torque1_x	ground_torque1_y	ground_torque1_z	ground_torque2_x	ground_torque2_y	ground_torque2_z	
10.27662400000000	50.93729100000000	777.93775300000004	57.59489100000000	0.36896300000000	0.00000000000000	0.10603300000000	0.00000000000000	0.00000000000000	0.00000000000000	0.00000000000000	0.00000000000000	0.00000000000000	0.00000000000000	30.14017100000000	0.00000000000000	0.00000000000000	0.00000000000000	0.00000000000000	
10.27829700000000	50.05582500000000	779.69213700000000	57.73636800000000	0.36739200000000	0.00000000000000	0.10608200000000	0.00000000000000	0.00000000000000	0.00000000000000	0.00000000000000	0.00000000000000	0.00000000000000	0.00000000000000	30.22326000000000	0.00000000000000	0.00000000000000	0.00000000000000	0.00000000000000	
10.27997400000000	49.17719500000000	781.29621099999997	57.88206900000000	0.36584300000000	0.00000000000000	0.10613000000000	0.00000000000000	0.00000000000000	0.00000000000000	0.00000000000000	0.00000000000000	0.00000000000000	0.00000000000000	30.31043300000000	0.00000000000000	0.00000000000000	0.00000000000000	0.00000000000000	
10.28163300000000	48.30216600000000	782.74982000000000	58.03167900000000	0.36431500000000	0.00000000000000	0.10617800000000	0.00000000000000	0.00000000000000	0.00000000000000	0.00000000000000	0.00000000000000	0.00000000000000	0.00000000000000	30.40147000000000	0.00000000000000	0.00000000000000	0.00000000000000	0.00000000000000	
10.28329600000000	47.43142200000000	784.05301799999995	58.18478300000000	0.36281100000000	0.00000000000000	0.10622600000000	0.00000000000000	0.00000000000000	0.00000000000000	0.00000000000000	0.00000000000000	0.00000000000000	0.00000000000000	30.49608900000000	0.00000000000000	0.00000000000000	0.00000000000000	0.00000000000000	
10.28497200000000	46.56557200000000	785.20608000000004	58.34087500000000	0.36133000000000	0.00000000000000	0.10627400000000	0.00000000000000	0.00000000000000	0.00000000000000	0.00000000000000	0.00000000000000	0.00000000000000	0.00000000000000	30.59394900000000	0.00000000000000	0.00000000000000	0.00000000000000	0.00000000000000	
10.28662800000000	45.70514900000000	786.20950400000004	58.49936000000000	0.35987400000000	0.00000000000000	0.10632100000000	0.00000000000000	0.00000000000000	0.00000000000000	0.00000000000000	0.00000000000000	0.00000000000000	0.00000000000000	30.69465100000000	0.00000000000000	0.00000000000000	0.00000000000000	0.00000000000000	
10.28829800000000	44.85061100000000	787.06402200000002	58.65956400000000	0.35844100000000	0.00000000000000	0.10636800000000	0.00000000000000	0.00000000000000	0.00000000000000	0.00000000000000	0.00000000000000	0.00000000000000	0.00000000000000	30.79774900000000	0.00000000000000	0.00000000000000	0.00000000000000	0.00000000000000	
10.28996500000000	44.00235200000000	787.77060800000004	58.82074200000000	0.35703400000000	0.00000000000000	0.10641400000000	0.00000000000000	0.00000000000000	0.00000000000000	0.00000000000000	0.00000000000000	0.00000000000000	0.00000000000000	30.90275000000000	0.00000000000000	0.00000000000000	0.00000000000000	0.00000000000000	
10.29162400000000	43.16069500000000	788.33047699999997	58.98208400000000	0.35565100000000	0.00000000000000	0.10645900000000	0.00000000000000	0.00000000000000	0.00000000000000	0.00000000000000	0.00000000000000	0.00000000000000	0.00000000000000	31.00912200000000	0.00000000000000	0.00000000000000	0.00000000000000	0.00000000000000	
10.29329400000000	42.32590300000000	788.74509399999999	59.14272300000000	0.35429300000000	0.00000000000000	0.10650300000000	0.00000000000000	0.00000000000000	0.00000000000000	0.00000000000000	0.00000000000000	0.00000000000000	0.00000000000000	31.11630000000000	0.00000000000000	0.00000000000000	0.00000000000000	0.00000000000000	
10.29497500000000	41.49818100000000	789.01617499999998	59.30174400000000	0.35295900000000	0.00000000000000	0.10654600000000	0.00000000000000	0.00000000000000	0.00000000000000	0.00000000000000	0.00000000000000	0.00000000000000	0.00000000000000	31.22368600000000	0.00000000000000	0.00000000000000	0.00000000000000	0.00000000000000	
10.29663100000000	40.67767800000000	789.14568899999995	59.45819400000000	0.35165100000000	0.00000000000000	0.10658800000000	0.00000000000000	0.00000000000000	0.00000000000000	0.00000000000000	0.00000000000000	0.00000000000000	0.00000000000000	31.33066200000000	0.00000000000000	0.00000000000000	0.00000000000000	0.00000000000000	
10.29829700000000	39.86449400000000	789.13585599999999	59.61108800000000	0.35036600000000	0.00000000000000	0.10662800000000	0.00000000000000	0.00000000000000	0.00000000000000	0.00000000000000	0.00000000000000	0.00000000000000	0.00000000000000	31.43659100000000	0.00000000000000	0.00000000000000	0.00000000000000	0.00000000000000	
10.29997300000000	39.05867900000000	788.98914800000000	59.75942000000000	0.34910600000000	0.00000000000000	0.10666700000000	0.00000000000000	0.00000000000000	0.00000000000000	0.00000000000000	0.00000000000000	0.00000000000000	0.00000000000000	31.54082000000000	0.00000000000000	0.00000000000000	0.00000000000000	0.00000000000000	
